<svg xmlns="http://www.w3.org/2000/svg" version="1.0" preserveAspectRatio="xMidYMid meet" viewBox="32.9 34 171.3 168.94">
<g xmlns="http://www.w3.org/2000/svg" transform="translate(0.000000,216.000000) scale(0.100000,-0.100000)" fill="#ffffff" stroke="none">
<path d="M765 1815 c-5 -2 -27 -6 -47 -10 l-37 -6 14 -32 c8 -18 29 -66 48 -107 19 -41 45 -101 58 -134 l24 -58 6 33 c4 19 9 98 11 177 l3 142 -35 -1 c-19 0 -39 -2 -45 -4z" fill="#ffffff"/>
<path d="M1514 1810 c-27 -6 -252 -200 -419 -362 -22 -21 62 15 320 139 193 92 352 169 355 171 8 6 -24 22 -75 36 -64 18 -142 25 -181 16z" fill="#ffffff"/>
<path d="M883 1699 c4 -63 7 -141 8 -174 l0 -60 29 75 c15 41 42 112 59 158 l31 83 -26 9 c-14 6 -44 13 -66 17 l-41 6 6 -114z" fill="#ffffff"/>
<path d="M1379 1785 c-62 -22 -100 -45 -145 -87 -37 -34 -46 -38 -59 -28 -9 7 -17 11 -19 9 -4 -4 -73 -113 -121 -189 -19 -31 -22 -40 -9 -29 10 9 105 85 209 169 105 84 194 157 200 162 13 12 -14 9 -56 -7z" fill="#ffffff"/>
<path d="M604 1765 c-27 -14 -62 -35 -77 -47 l-28 -23 141 -140 c140 -140 140 -140 127 -95 -55 178 -100 316 -106 323 -4 4 -29 -4 -57 -18z" fill="#ffffff"/>
<path d="M1037 1753 c-3 -5 -21 -64 -41 -133 -21 -69 -39 -132 -42 -140 -7 -19 -7 -20 81 100 43 58 82 110 87 117 6 8 -3 20 -29 37 -40 28 -49 31 -56 19z" fill="#ffffff"/>
<path d="M1448 1567 c-179 -100 -325 -183 -324 -184 1 -1 141 31 311 72 171 40 324 76 340 79 44 8 187 45 191 48 1 2 -13 24 -32 48 -41 53 -123 120 -144 119 -8 0 -162 -82 -342 -182z" fill="#ffffff"/>
<path d="M453 1647 c-44 -50 -77 -107 -67 -117 8 -7 114 -53 313 -137 l33 -14 -18 23 c-65 82 -227 278 -229 278 -2 0 -16 -15 -32 -33z" fill="#ffffff"/>
<path d="M1560 1449 l-405 -119 280 5 c154 3 354 8 444 11 l163 7 -6 50 c-8 56 -47 159 -61 163 -6 1 -192 -52 -415 -117z" fill="#ffffff"/>
<path d="M351 1453 c-5 -27 -13 -62 -16 -79 l-6 -31 176 -8 c97 -4 178 -5 180 -3 5 4 -299 168 -312 168 -6 0 -16 -21 -22 -47z" fill="#ffffff"/>
<path d="M843 1370 c-122 -62 -114 -237 11 -285 75 -29 140 -9 190 59 29 39 29 133 0 172 -52 70 -129 90 -201 54z" fill="#ffffff"/>
<path d="M1600 1305 c-223 -18 -407 -33 -410 -35 -3 -1 182 -35 410 -75 228 -41 416 -73 416 -72 4 4 24 160 24 188 0 21 -5 29 -17 28 -10 -1 -200 -16 -423 -34z" fill="#ffffff"/>
<path d="M335 1268 c11 -92 13 -99 33 -90 9 5 79 26 155 47 75 21 137 41 137 45 0 3 -66 14 -147 24 -82 9 -156 20 -166 23 -16 4 -17 -1 -12 -49z" fill="#ffffff"/>
<path d="M513 1176 c-78 -17 -145 -34 -148 -38 -9 -9 16 -108 28 -108 8 0 252 154 272 171 12 12 13 12 -152 -25z" fill="#ffffff"/>
<path d="M1170 1207 c5 -6 735 -283 760 -289 16 -4 87 170 73 182 -4 4 -186 28 -403 54 -217 26 -404 50 -415 53 -11 3 -18 3 -15 0z" fill="#ffffff"/>
<path d="M552 1076 c-73 -40 -138 -78 -143 -83 -11 -11 29 -106 41 -101 8 3 243 258 238 258 -2 0 -63 -33 -136 -74z" fill="#ffffff"/>
<path d="M1185 1133 c39 -25 580 -361 621 -385 l32 -19 46 79 c25 43 46 81 46 85 0 3 -167 60 -370 127 -204 66 -378 123 -388 126 -9 4 -3 -3 13 -13z" fill="#ffffff"/>
<path d="M584 971 l-121 -119 29 -51 c17 -29 31 -51 33 -49 11 12 187 338 183 338 -2 0 -58 -54 -124 -119z" fill="#ffffff"/>
<path d="M1180 1044 c272 -249 523 -474 529 -474 9 0 115 139 110 144 -2 1 -155 85 -339 186 -184 100 -339 185 -345 188 -5 3 15 -17 45 -44z" fill="#ffffff"/>
<path d="M647 876 c-53 -85 -97 -158 -97 -161 0 -4 18 -29 39 -56 l39 -49 11 32 c28 87 111 382 108 385 -2 1 -47 -67 -100 -151z" fill="#ffffff"/>
<path d="M1326 728 c125 -166 229 -305 231 -308 2 -2 33 25 68 61 l65 64 -282 235 c-154 129 -288 239 -295 243 -8 5 88 -128 213 -295z" fill="#ffffff"/>
<path d="M1123 840 c41 -85 120 -247 176 -358 92 -184 104 -202 119 -191 57 44 122 102 122 110 0 8 -424 525 -472 574 -10 11 14 -50 55 -135z" fill="#ffffff"/>
<path d="M726 788 c-36 -106 -66 -197 -66 -203 0 -5 24 -37 53 -69 l53 -59 18 257 c10 142 16 259 13 262 -2 2 -34 -82 -71 -188z" fill="#ffffff"/>
<path d="M924 925 c3 -27 15 -184 28 -348 l22 -298 66 -48 c89 -66 150 -105 155 -100 2 3 -59 193 -136 424 -92 279 -138 403 -135 370z" fill="#ffffff"/>
<path d="M826 728 c-16 -128 -31 -247 -33 -263 -4 -27 2 -37 67 -94 39 -35 74 -61 77 -58 6 7 -65 603 -75 630 -4 11 -20 -82 -36 -215z" fill="#ffffff"/>
<path d="M993 945 c26 -92 80 -292 83 -304 12 -53 135 -485 138 -489 6 -5 140 84 156 104 9 10 -33 92 -176 351 -183 330 -212 380 -201 338z" fill="#ffffff"/>
</g>
</svg>